<svg xmlns="http://www.w3.org/2000/svg" width="1920" height="999" viewBox="0 0 1920 999" fill="none">
  <path d="M139.611 685.217C22.7623 671.14 -2.06365 581.6 0.129454 538.589L0.129454 0L2002.87 0V538.589C2005.06 581.6 1980.24 671.14 1863.39 685.217C1717.33 702.812 1721.28 764.396 1698.91 814.249C1676.54 864.103 1641.01 913.956 1516 874.366C1391 834.777 1268.62 821.58 1175.19 915.422C1100.45 990.496 1028.1 999 1001.5 999C974.898 999 902.547 990.496 827.806 915.422C734.38 821.58 612.005 834.777 486.998 874.366C361.991 913.956 326.463 864.103 304.093 814.249C281.724 764.396 285.671 702.812 139.611 685.217Z" fill="#1D1534"/>
</svg>