<svg width="21" height="21" viewBox="0 0 21 21" fill="none" xmlns="http://www.w3.org/2000/svg">
<g id="github 1" clip-path="url(#clip0_51_151)">
<path id="Vector" d="M10.375 0.58252C4.85 0.58252 0.375 4.98252 0.375 10.4092C0.375 14.7517 3.24 18.4342 7.2125 19.7325C7.7125 19.825 7.89583 19.5209 7.89583 19.26C7.89583 19.0267 7.8875 18.4084 7.88333 17.5892C5.10167 18.1817 4.515 16.2709 4.515 16.2709C4.06 15.1367 3.4025 14.8334 3.4025 14.8334C2.49667 14.2242 3.4725 14.2367 3.4725 14.2367C4.47667 14.305 5.00417 15.2492 5.00417 15.2492C5.89583 16.7517 7.345 16.3175 7.91667 16.0667C8.00667 15.4309 8.26417 14.9984 8.55 14.7525C6.32917 14.5067 3.995 13.6617 3.995 9.89669C3.995 8.82419 4.3825 7.94752 5.02417 7.26002C4.91167 7.01169 4.57417 6.01252 5.11167 4.65919C5.11167 4.65919 5.94917 4.39585 7.86167 5.66669C8.66167 5.44835 9.51167 5.34002 10.3617 5.33502C11.2117 5.34002 12.0617 5.44835 12.8617 5.66669C14.7617 4.39585 15.5992 4.65919 15.5992 4.65919C16.1367 6.01252 15.7992 7.01169 15.6992 7.26002C16.3367 7.94752 16.7242 8.82419 16.7242 9.89669C16.7242 13.6717 14.3867 14.5025 12.1617 14.7442C12.5117 15.0392 12.8367 15.6417 12.8367 16.5625C12.8367 17.8775 12.8242 18.9342 12.8242 19.2534C12.8242 19.5109 12.9992 19.8184 13.5117 19.72C17.5125 18.43 20.375 14.745 20.375 10.4092C20.375 4.98252 15.8975 0.58252 10.375 0.58252Z" fill="white"/>
</g>
<defs>
<clipPath id="clip0_51_151">
<rect width="20" height="20" fill="white" transform="translate(0.375 0.165527)"/>
</clipPath>
</defs>
</svg>
