<svg width="21" height="21" viewBox="0 0 21 21" fill="none" xmlns="http://www.w3.org/2000/svg">
<g id="instagram (1) 1" clip-path="url(#clip0_51_147)">
<path id="Vector" d="M14.542 1.83203H6.20866C3.90747 1.83203 2.04199 3.69751 2.04199 5.9987V14.332C2.04199 16.6332 3.90747 18.4987 6.20866 18.4987H14.542C16.8432 18.4987 18.7087 16.6332 18.7087 14.332V5.9987C18.7087 3.69751 16.8432 1.83203 14.542 1.83203Z" stroke="white" stroke-width="2" stroke-linecap="round" stroke-linejoin="round"/>
<path id="Vector_2" d="M13.7087 9.64078C13.8116 10.3343 13.6931 11.0426 13.3702 11.665C13.0473 12.2873 12.5364 12.792 11.9101 13.1072C11.2838 13.4224 10.5741 13.5321 9.8819 13.4207C9.18968 13.3093 8.55021 12.9825 8.05444 12.4867C7.55867 11.991 7.23185 11.3515 7.12046 10.6593C7.00908 9.96707 7.11879 9.25736 7.43401 8.63109C7.74923 8.00482 8.2539 7.4939 8.87623 7.17098C9.49856 6.84806 10.2069 6.7296 10.9004 6.83245C11.6078 6.93735 12.2628 7.267 12.7685 7.7727C13.2742 8.2784 13.6038 8.93334 13.7087 9.64078Z" stroke="white" stroke-width="2" stroke-linecap="round" stroke-linejoin="round"/>
<path id="Vector_3" d="M14.958 5.58203H14.9663" stroke="white" stroke-width="2" stroke-linecap="round" stroke-linejoin="round"/>
</g>
<defs>
<clipPath id="clip0_51_147">
<rect width="20" height="20" fill="white" transform="translate(0.375 0.165527)"/>
</clipPath>
</defs>
</svg>
