<svg width="21" height="21" viewBox="0 0 21 21" fill="none" xmlns="http://www.w3.org/2000/svg">
<g id="medium 1" clip-path="url(#clip0_51_160)">
<path id="Vector" d="M18.7792 4.10937L20.375 2.5827V2.24854H14.8467L10.9067 12.0552L6.42417 2.24854H0.6275V2.5827L2.49167 4.82687C2.67333 4.9927 2.76833 5.2352 2.74417 5.47937V14.2985C2.80167 14.616 2.69833 14.9427 2.475 15.1735L0.375 17.7185V18.0485H6.32917V17.7144L4.22917 15.1735C4.00167 14.9419 3.89417 14.621 3.94 14.2985V6.6702L9.16667 18.0527H9.77417L14.2683 6.6702V15.7377C14.2683 15.9769 14.2683 16.026 14.1117 16.1827L12.495 17.7469V18.0819H20.3383V17.7477L18.78 16.2219C18.6433 16.1185 18.5725 15.9452 18.6017 15.7769V4.55437C18.5725 4.3852 18.6425 4.21187 18.7792 4.10937Z" fill="white"/>
</g>
<defs>
<clipPath id="clip0_51_160">
<rect width="20" height="20" fill="white" transform="translate(0.375 0.165527)"/>
</clipPath>
</defs>
</svg>
