<svg xmlns="http://www.w3.org/2000/svg" width="1920" height="1102" viewBox="0 0 1920 1102" fill="none">
  <path d="M139.611 755.865C22.7623 740.337 -2.06365 641.564 0.129454 594.119L0.129454 0L2002.87 0V594.119C2005.06 641.564 1980.24 740.337 1863.39 755.865C1717.33 775.274 1721.28 843.207 1698.91 898.201C1676.54 953.194 1641.01 1008.19 1516 964.516C1391 920.845 1268.62 906.288 1175.19 1009.8C1100.45 1092.62 1028.1 1102 1001.5 1102C974.898 1102 902.547 1092.62 827.806 1009.8C734.38 906.288 612.005 920.845 486.998 964.516C361.991 1008.19 326.463 953.194 304.093 898.201C281.724 843.207 285.671 775.274 139.611 755.865Z" fill="#1D1534"/>
</svg>