<svg width="21" height="21" viewBox="0 0 21 21" fill="none" xmlns="http://www.w3.org/2000/svg">
<g id="reddit 1" clip-path="url(#clip0_51_158)">
<path id="Vector" d="M18.1458 7.92252C17.5141 7.92252 16.9583 8.18835 16.5491 8.60252C15.045 7.54585 13.0166 6.86585 10.7691 6.79335L11.9366 1.45502L15.6541 2.30169C15.6541 3.22502 16.3958 3.97919 17.3058 3.97919C18.2333 3.97919 18.9791 3.20502 18.9791 2.28085C18.9791 1.35669 18.2383 0.58252 17.3066 0.58252C16.6575 0.58252 16.0975 0.98002 15.8183 1.52335L11.7125 0.60002C11.5058 0.544186 11.3033 0.694186 11.2483 0.904186L9.96664 6.78919C7.73664 6.88335 5.72997 7.56252 4.2208 8.62002C3.81164 8.18835 3.23414 7.92252 2.60247 7.92252C0.259135 7.92252 -0.508365 11.1134 1.63747 12.2042C1.56164 12.5417 1.52747 12.9017 1.52747 13.2609C1.52747 16.845 5.50664 19.7492 10.3925 19.7492C15.2991 19.7492 19.2783 16.845 19.2783 13.2609C19.2783 12.9017 19.2408 12.525 19.1483 12.1867C21.2508 11.0917 20.4766 7.92419 18.1458 7.92252ZM5.04247 12.4309C5.04247 11.49 5.78414 10.7325 6.7158 10.7325C7.6258 10.7325 8.3683 11.485 8.3683 12.4309C8.3683 13.355 7.62664 14.1084 6.7158 14.1084C5.7883 14.1125 5.04247 13.355 5.04247 12.4309ZM14.075 16.4292C12.5408 17.9859 8.21164 17.9859 6.67664 16.4292C6.50747 16.2792 6.50747 16.0142 6.67664 15.8434C6.82414 15.6934 7.0858 15.6934 7.2333 15.8434C8.40497 17.0625 12.2916 17.0834 13.5141 15.8434C13.6616 15.6934 13.9233 15.6934 14.0708 15.8434C14.2433 16.015 14.2433 16.28 14.075 16.4292ZM14.0408 14.1117C13.1308 14.1117 12.3891 13.3592 12.3891 12.4359C12.3891 11.495 13.1308 10.7375 14.0408 10.7375C14.9683 10.7375 15.7141 11.49 15.7141 12.4359C15.71 13.355 14.9683 14.1117 14.0408 14.1117Z" fill="white"/>
</g>
<defs>
<clipPath id="clip0_51_158">
<rect width="20" height="20" fill="white" transform="translate(0.375 0.165527)"/>
</clipPath>
</defs>
</svg>
