<svg xmlns="http://www.w3.org/2000/svg" width="22" height="22" viewBox="0 0 22 22" fill="none">
  <path d="M17.542 7.90271C18.1865 7.41931 18.7666 6.83923 19.2178 6.16248C18.6377 6.42029 17.9609 6.61365 17.2842 6.6781C17.9932 6.25916 18.5088 5.61462 18.7666 4.80896C18.1221 5.19568 17.3809 5.48572 16.6396 5.64685C15.9951 4.97009 15.125 4.58337 14.1582 4.58337C12.2891 4.58337 10.7744 6.09802 10.7744 7.96716C10.7744 8.22498 10.8066 8.48279 10.8711 8.7406C8.06738 8.57947 5.55371 7.22595 3.87793 5.19568C3.58789 5.67908 3.42676 6.25916 3.42676 6.90369C3.42676 8.06384 4.00684 9.09509 4.94141 9.7074C4.39355 9.67517 3.8457 9.54626 3.39453 9.28845V9.32068C3.39453 10.9642 4.55469 12.3177 6.10156 12.64C5.84375 12.7045 5.52148 12.7689 5.23145 12.7689C5.00586 12.7689 4.8125 12.7367 4.58691 12.7045C5.00586 14.058 6.2627 15.0248 7.74512 15.057C6.58496 15.9594 5.13477 16.5072 3.55566 16.5072C3.26562 16.5072 3.00781 16.475 2.75 16.4427C4.23242 17.4095 6.00488 17.9574 7.93848 17.9574C14.1582 17.9574 17.542 12.8334 17.542 8.35388C17.542 8.19275 17.542 8.06384 17.542 7.90271Z" fill="#6B7280"/>
</svg>