<svg width="21" height="21" viewBox="0 0 21 21" fill="none" xmlns="http://www.w3.org/2000/svg">
<g id="twitter (2) 1">
<path id="Vector" d="M19.5413 2.66561C18.7433 3.2285 17.8598 3.65903 16.9247 3.94061C16.4228 3.36353 15.7558 2.95452 15.0139 2.76888C14.272 2.58324 13.4909 2.62994 12.7764 2.90265C12.0619 3.17537 11.4484 3.66094 11.0188 4.2937C10.5893 4.92647 10.3644 5.67589 10.3747 6.44061V7.27394C8.9102 7.31191 7.45907 6.98712 6.15051 6.32848C4.84196 5.66984 3.71661 4.6978 2.87467 3.49894C2.87467 3.49894 -0.458659 10.9989 7.04134 14.3323C5.32511 15.4972 3.28064 16.0814 1.20801 15.9989C8.70801 20.1656 17.8747 15.9989 17.8747 6.41561C17.8739 6.18348 17.8516 5.95194 17.808 5.72394C18.6585 4.88518 19.2587 3.8262 19.5413 2.66561Z" fill="white"/>
</g>
</svg>
